<?xml version="1.0" standalone="no"?>
<!DOCTYPE svg PUBLIC "-//W3C//DTD SVG 20010904//EN"
 "http://www.w3.org/TR/2001/REC-SVG-20010904/DTD/svg10.dtd">
<svg version="1.0" xmlns="http://www.w3.org/2000/svg"
 width="2048.000000pt" height="2048.000000pt" viewBox="0 0 2048.000000 2048.000000"
 preserveAspectRatio="xMidYMid meet">
<metadata>
Created by potrace 1.16, written by Peter Selinger 2001-2019
</metadata>
<g transform="translate(0.000000,2048.000000) scale(0.100000,-0.100000)"
fill="#000000" stroke="none">
<path d="M9065 19947 c-60 -33 -94 -67 -117 -117 l-21 -45 12 -2173 c7 -1196
11 -2175 9 -2177 -2 -2 -53 44 -113 103 -61 59 -148 135 -195 170 -47 34 -90
67 -97 72 -7 6 -17 10 -23 10 -5 0 -10 5 -10 10 0 6 -5 10 -10 10 -6 0 -29 12
-53 27 -51 33 -267 143 -280 143 -5 0 -24 7 -43 15 -19 8 -49 22 -68 30 -19 8
-41 15 -49 15 -8 0 -30 6 -48 14 -46 19 -185 51 -294 67 -135 21 -530 18 -670
-4 -60 -10 -130 -24 -155 -32 -25 -7 -61 -17 -80 -20 -19 -4 -39 -11 -45 -15
-5 -4 -26 -11 -45 -15 -19 -4 -41 -11 -50 -15 -14 -7 -42 -19 -92 -39 -30 -12
-248 -119 -273 -134 -62 -38 -184 -120 -210 -142 -16 -14 -48 -40 -70 -57 -69
-57 -262 -255 -307 -315 -24 -32 -53 -69 -65 -83 -13 -14 -23 -30 -23 -36 0
-6 -7 -18 -16 -25 -9 -7 -20 -22 -25 -34 -5 -11 -18 -33 -29 -50 -11 -16 -23
-37 -27 -45 -3 -8 -16 -31 -28 -50 -12 -19 -29 -54 -38 -77 -14 -37 -35 -85
-68 -158 -20 -45 -49 -140 -49 -162 0 -12 -4 -23 -10 -23 -5 0 -10 -13 -10
-28 0 -15 -4 -32 -9 -37 -25 -28 -61 -332 -61 -517 0 -156 23 -387 44 -453 8
-22 17 -61 20 -87 4 -26 11 -50 17 -53 5 -4 9 -17 9 -30 0 -13 4 -26 9 -29 4
-3 11 -24 15 -46 3 -23 10 -49 15 -58 5 -9 13 -28 18 -42 49 -125 196 -387
265 -473 10 -12 21 -27 25 -32 143 -192 412 -429 630 -553 103 -59 215 -112
238 -112 8 0 15 -4 15 -10 0 -5 7 -10 15 -10 8 0 23 -4 33 -10 65 -36 311
-100 472 -121 139 -19 489 -16 624 5 137 21 347 75 381 97 6 3 23 9 39 13 54
13 236 100 346 165 75 45 240 165 307 224 20 18 78 75 130 127 l93 95 0 -253
c0 -139 4 -260 9 -270 5 -9 15 -30 22 -47 12 -26 41 -58 86 -95 7 -6 19 -10
27 -10 8 0 18 -4 21 -10 3 -5 44 -10 91 -10 49 0 84 4 84 10 0 6 9 10 20 10
27 0 120 93 120 119 0 11 5 23 11 27 8 4 11 259 11 893 0 487 0 949 0 1026 1
77 -4 388 -10 690 -6 303 -15 1554 -22 2780 -7 1478 -14 2253 -21 2298 -10 59
-16 74 -53 113 -23 24 -47 44 -54 44 -7 0 -12 5 -12 10 0 6 -9 10 -19 10 -11
0 -23 5 -26 10 -3 6 -39 10 -78 9 -54 -1 -82 -6 -112 -22z m-1424 -4341 c148
-30 301 -78 371 -116 10 -6 24 -10 32 -10 8 0 16 -3 18 -7 2 -5 28 -21 58 -37
55 -29 170 -104 180 -116 3 -3 27 -21 54 -40 42 -28 208 -187 241 -231 116
-150 148 -202 210 -329 25 -52 50 -103 55 -112 6 -10 10 -27 10 -38 0 -11 5
-20 10 -20 6 0 10 -13 10 -30 0 -16 4 -30 8 -30 7 0 15 -30 47 -185 21 -104
20 -488 -1 -609 -9 -50 -20 -96 -25 -101 -4 -6 -11 -30 -15 -53 -4 -23 -11
-45 -15 -48 -5 -3 -9 -14 -9 -25 0 -10 -4 -27 -9 -37 -5 -9 -13 -28 -19 -42
-32 -81 -142 -280 -169 -308 -7 -7 -13 -16 -13 -20 0 -4 -10 -19 -23 -33 -12
-15 -42 -51 -67 -80 -57 -67 -134 -144 -188 -187 -22 -19 -50 -41 -61 -50 -10
-10 -29 -24 -41 -32 -12 -8 -33 -23 -45 -32 -13 -10 -27 -18 -31 -18 -4 0 -21
-10 -38 -23 -35 -26 -208 -111 -246 -122 -14 -3 -34 -10 -45 -15 -48 -21 -209
-61 -305 -76 -128 -19 -327 -22 -435 -5 -101 16 -297 61 -310 71 -5 5 -27 11
-47 15 -21 4 -38 11 -38 16 0 5 -7 9 -15 9 -8 0 -23 4 -33 9 -9 5 -51 26 -92
46 -100 49 -199 109 -247 150 -6 6 -26 21 -44 35 -46 36 -187 175 -238 238
-77 92 -140 194 -212 342 -22 47 -45 92 -49 100 -4 9 -11 31 -15 50 -4 19 -11
40 -15 45 -4 6 -11 30 -15 55 -4 25 -11 50 -15 55 -4 6 -16 57 -26 115 -27
155 -25 398 5 550 12 63 26 124 30 135 5 11 16 47 26 80 16 58 26 82 66 170
10 22 23 51 28 65 6 14 17 34 23 45 7 10 31 49 53 85 22 36 45 71 52 78 7 8
18 23 24 34 6 11 18 29 27 41 31 39 217 222 250 247 19 14 39 30 45 35 28 24
166 112 204 130 24 11 43 23 43 28 0 4 6 7 14 7 8 0 34 10 58 21 23 12 54 26
68 32 14 5 32 13 40 17 8 4 40 13 70 20 30 7 60 16 65 20 6 4 37 13 70 20 207
45 441 47 646 6z"/>
<path d="M10500 16211 c-8 -5 -34 -11 -57 -15 -23 -3 -52 -11 -64 -18 -39 -23
-99 -84 -99 -101 0 -10 -6 -17 -14 -17 -10 0 -17 -16 -22 -45 -3 -25 -10 -45
-14 -45 -4 0 -11 -29 -15 -65 -3 -36 -10 -63 -15 -60 -5 3 -12 -25 -16 -62 -3
-38 -11 -71 -16 -74 -4 -3 -14 -59 -20 -125 -6 -65 -15 -121 -19 -124 -5 -3
-11 -65 -15 -138 -4 -73 -11 -132 -15 -132 -5 0 -9 -148 -9 -330 0 -183 4
-330 9 -330 5 0 12 -65 16 -145 4 -80 10 -145 14 -145 7 0 31 -164 31 -207 0
-13 4 -23 10 -23 5 0 12 -27 16 -60 4 -33 10 -60 14 -60 4 0 11 -25 15 -55 3
-30 10 -55 14 -55 5 0 14 -27 21 -60 7 -33 16 -60 20 -60 4 0 11 -20 14 -45 4
-25 11 -45 16 -45 4 0 11 -18 15 -40 4 -22 13 -47 21 -55 8 -7 17 -28 20 -44
4 -17 10 -31 13 -31 4 0 12 -20 19 -45 7 -25 16 -45 21 -45 5 0 12 -13 16 -30
4 -16 10 -30 15 -30 5 0 14 -16 20 -35 6 -19 15 -35 20 -35 4 0 11 -16 14 -36
4 -19 14 -38 22 -41 7 -3 14 -12 14 -19 0 -8 6 -17 13 -20 8 -3 20 -20 27 -39
8 -19 18 -35 22 -35 5 0 13 -11 18 -25 5 -14 14 -25 20 -25 5 0 10 -6 10 -12
0 -7 12 -24 25 -37 14 -13 25 -27 25 -33 0 -5 6 -16 13 -23 6 -8 21 -26 32
-41 26 -34 182 -194 190 -194 3 0 20 -16 38 -35 17 -19 38 -35 44 -35 7 0 13
-4 13 -10 0 -5 4 -10 10 -10 5 0 20 -10 34 -22 40 -37 55 -48 66 -48 5 0 10
-4 10 -10 0 -5 5 -10 10 -10 10 0 69 -38 80 -51 3 -4 16 -10 30 -14 14 -4 31
-12 37 -17 35 -28 188 -92 283 -118 25 -6 53 -16 64 -22 10 -5 100 -16 200
-25 211 -17 417 -6 551 28 44 12 92 23 108 26 15 3 30 9 33 14 3 5 12 9 20 9
8 0 41 12 72 26 31 14 71 32 89 40 18 8 35 19 38 24 3 6 15 10 25 10 17 0 86
35 100 50 7 7 42 29 60 37 8 3 25 17 37 30 12 13 25 23 29 23 4 0 14 8 23 18
9 9 32 26 51 36 19 10 45 29 56 42 12 13 26 24 33 24 6 0 11 4 11 8 0 11 35
52 45 52 4 0 16 11 27 25 11 14 26 25 34 25 8 0 14 4 14 9 0 5 17 28 38 50
100 110 117 129 140 164 13 20 28 37 33 37 5 0 18 18 29 40 11 22 24 40 29 40
5 0 14 13 21 29 6 16 19 37 28 47 10 11 29 43 43 72 15 29 30 52 35 51 5 -1
18 25 29 59 11 34 25 62 31 62 5 0 17 16 24 36 13 33 15 34 20 12 7 -25 3
-520 -5 -688 -18 -390 -30 -570 -45 -715 -6 -49 -12 -119 -15 -155 -4 -36 -8
-83 -10 -105 -3 -22 -7 -60 -9 -85 -5 -40 -21 -158 -31 -217 -1 -11 -6 -29 -9
-40 -6 -17 -8 -34 -21 -151 -3 -24 -8 -49 -11 -54 -7 -12 -10 -26 -19 -118 -3
-30 -10 -59 -14 -65 -5 -5 -11 -28 -14 -50 -7 -52 -45 -236 -54 -255 -3 -8 -5
-18 -5 -23 1 -4 -4 -23 -13 -42 -8 -20 -12 -42 -9 -50 4 -8 1 -15 -5 -15 -6 0
-11 -8 -11 -18 0 -10 -3 -22 -7 -26 -4 -4 -8 -23 -10 -42 -1 -20 -7 -42 -14
-50 -6 -7 -9 -21 -5 -29 3 -8 1 -15 -4 -15 -6 0 -10 -7 -10 -15 0 -8 -4 -23
-9 -33 -5 -9 -12 -25 -15 -34 -5 -17 -34 -18 -433 -18 -235 0 -1278 -5 -2318
-11 -1039 -6 -2945 -16 -4235 -23 l-2345 -12 -45 -21 c-91 -43 -140 -126 -140
-240 0 -42 4 -73 10 -73 6 0 10 -7 10 -16 0 -41 77 -117 140 -137 30 -10 848
-9 3050 3 921 5 2013 10 2425 12 l750 3 3 -43 c2 -26 9 -45 18 -49 8 -3 14
-13 14 -24 0 -10 21 -40 48 -67 26 -27 54 -57 64 -68 9 -10 29 -31 45 -45 15
-15 37 -37 49 -50 37 -43 268 -249 365 -327 129 -103 154 -122 162 -122 4 0
29 -17 56 -37 27 -21 64 -47 82 -58 18 -11 47 -29 64 -39 63 -39 207 -115 290
-153 75 -33 243 -94 270 -96 11 -1 25 -5 30 -8 13 -9 107 -28 165 -34 25 -3
70 -8 100 -11 70 -8 62 -8 210 -1 69 4 139 11 155 16 17 5 62 14 100 21 39 7
75 16 80 20 6 4 27 10 48 14 20 4 37 10 37 15 0 4 19 14 43 21 23 8 46 20 50
27 4 7 16 13 26 13 10 0 29 8 42 19 13 10 43 28 67 40 23 12 42 26 42 31 0 6
5 10 11 10 16 0 121 86 192 158 34 35 81 83 105 107 23 23 42 47 42 51 0 5 18
27 40 49 21 22 39 45 40 50 0 6 13 26 28 45 30 38 92 136 92 148 1 4 14 23 30
42 17 19 30 42 30 51 0 9 9 28 20 42 21 26 114 214 115 232 0 6 4 15 7 21 5 8
431 13 1463 18 1445 7 1456 7 1493 28 20 11 55 40 78 63 82 86 82 244 -1 331
-22 24 -46 44 -53 44 -7 0 -12 5 -12 10 0 6 -9 10 -19 10 -11 0 -23 5 -26 11
-5 7 -404 8 -1371 3 -1330 -7 -1397 -6 -1354 21 6 4 8 11 5 16 -3 5 1 24 10
42 9 19 15 38 14 43 -2 8 0 15 18 62 3 9 8 31 10 47 1 17 8 40 15 52 6 13 9
26 5 29 -3 4 0 22 8 41 8 20 15 46 15 58 0 12 7 38 15 58 8 19 11 37 8 41 -4
3 -1 16 5 29 6 12 13 42 16 67 3 25 11 74 19 110 8 36 13 68 11 72 -2 3 1 19
7 35 6 15 13 39 14 53 8 66 16 124 30 230 22 156 30 219 40 315 3 28 7 73 11
100 12 110 14 133 19 210 3 44 7 96 10 115 8 51 20 300 31 620 7 218 7 793 -1
1000 -10 285 -15 413 -19 490 -3 41 -7 127 -10 190 -4 63 -11 157 -17 208 -6
52 -8 99 -6 106 3 7 -3 84 -13 172 -10 87 -18 184 -19 215 -1 95 -71 704 -81
707 -6 2 -10 12 -10 23 0 10 -5 19 -10 19 -6 0 -26 18 -46 40 -27 29 -47 42
-75 46 -22 4 -39 10 -39 14 0 15 -175 -1 -231 -21 -31 -11 -76 -38 -100 -60
l-44 -40 0 -112 c0 -62 6 -175 14 -252 16 -161 17 -376 2 -550 -16 -186 -43
-390 -52 -393 -5 -2 -9 -19 -9 -38 0 -33 -8 -75 -30 -164 -36 -144 -45 -175
-50 -180 -3 -3 -14 -41 -23 -84 -9 -44 -20 -82 -25 -85 -4 -3 -16 -31 -26 -61
-11 -30 -22 -57 -26 -60 -3 -3 -14 -35 -24 -72 -10 -37 -23 -69 -30 -71 -7 -3
-18 -30 -25 -61 -7 -30 -17 -55 -23 -53 -6 1 -15 -13 -20 -32 -5 -19 -20 -48
-33 -65 -12 -17 -26 -41 -29 -53 -4 -13 -13 -29 -20 -35 -6 -7 -20 -30 -29
-50 -10 -21 -29 -50 -42 -64 -14 -15 -25 -33 -25 -39 0 -7 -7 -15 -15 -19 -8
-3 -15 -12 -15 -20 0 -8 -8 -21 -19 -28 -10 -7 -25 -26 -34 -43 -8 -16 -24
-37 -34 -46 -10 -8 -34 -35 -53 -59 -19 -24 -48 -55 -64 -69 -17 -14 -51 -47
-78 -73 -26 -27 -50 -48 -54 -48 -3 0 -15 -11 -25 -24 -11 -13 -39 -34 -64
-46 -25 -12 -45 -25 -45 -30 0 -4 -8 -11 -17 -14 -24 -9 -77 -37 -83 -45 -5
-6 -104 -55 -145 -72 -11 -5 -60 -17 -108 -29 -76 -17 -100 -18 -181 -10 -102
10 -190 26 -221 40 -11 5 -39 16 -62 26 -24 10 -43 21 -43 25 0 4 -12 10 -26
13 -26 7 -86 45 -92 59 -2 4 -10 7 -18 7 -8 0 -17 7 -20 15 -4 8 -10 15 -15
15 -4 0 -24 16 -43 35 -20 19 -40 35 -46 35 -5 0 -10 3 -10 8 0 4 -16 24 -35
45 -19 21 -35 42 -35 48 0 5 -7 9 -15 9 -8 0 -15 4 -15 9 0 4 -10 20 -22 34
-45 51 -68 82 -68 95 0 6 -5 12 -10 12 -6 0 -15 11 -20 25 -5 14 -13 25 -17
25 -5 0 -14 15 -22 33 -8 17 -17 34 -20 37 -12 10 -31 50 -31 65 0 8 -4 15 -8
15 -5 0 -15 18 -22 40 -7 22 -16 40 -20 40 -4 0 -11 16 -14 36 -4 19 -13 37
-20 40 -8 3 -19 32 -26 65 -7 32 -16 59 -20 59 -4 0 -13 27 -20 60 -7 33 -16
60 -19 60 -4 0 -13 28 -20 62 -7 35 -17 65 -22 69 -5 3 -14 43 -21 90 -6 46
-15 86 -19 89 -5 3 -14 51 -20 105 -7 55 -16 102 -19 105 -31 21 -41 914 -11
895 4 -2 13 58 20 133 7 75 16 139 21 142 4 3 11 37 15 75 4 39 11 72 16 75 4
3 13 39 20 80 6 41 16 78 22 82 15 9 23 186 8 201 -6 6 -11 17 -11 24 0 13
-63 83 -75 83 -10 0 -35 28 -35 39 0 6 -11 11 -25 11 -14 0 -25 5 -25 10 0 6
-8 10 -17 10 -10 0 -26 7 -36 15 -11 7 -49 16 -85 20 -37 3 -78 8 -92 10 -14
3 -32 1 -40 -4z m2681 -6439 c-16 -27 -32 -59 -36 -70 -3 -12 -11 -22 -16 -22
-6 0 -8 -4 -5 -9 3 -5 -8 -24 -24 -42 -16 -19 -30 -39 -30 -46 0 -6 -20 -33
-45 -60 -25 -26 -45 -52 -45 -56 0 -5 -19 -28 -42 -51 -24 -24 -48 -49 -54
-57 -33 -42 -172 -148 -221 -168 -17 -7 -34 -19 -37 -26 -2 -7 -23 -16 -45
-20 -23 -4 -41 -11 -41 -15 0 -5 -20 -12 -45 -16 -25 -3 -48 -10 -51 -15 -3
-5 -23 -9 -45 -9 -21 0 -39 -4 -39 -9 0 -10 -179 -6 -240 5 -19 4 -42 8 -50 9
-56 7 -181 41 -230 63 -19 9 -39 16 -45 17 -18 2 -65 28 -65 37 0 4 -10 8 -23
8 -12 0 -31 6 -42 14 -23 15 -84 51 -132 76 -17 9 -49 31 -71 48 -22 18 -45
32 -51 32 -6 0 -28 15 -48 33 -43 37 -108 87 -134 102 -9 6 -39 30 -67 55 -27
25 -68 61 -92 80 -23 19 -69 61 -102 92 l-60 58 438 3 c242 1 760 3 1151 5
l712 2 -28 -48z"/>
<path d="M8765 9647 c-60 -33 -94 -67 -117 -117 l-21 -45 12 -2173 c7 -1196
11 -2175 9 -2177 -2 -2 -53 44 -113 103 -61 59 -148 135 -195 170 -47 34 -90
67 -97 72 -7 6 -17 10 -23 10 -5 0 -10 5 -10 10 0 6 -5 10 -10 10 -6 0 -29 12
-53 27 -51 33 -267 143 -280 143 -5 0 -24 7 -43 15 -19 8 -49 22 -68 30 -19 8
-41 15 -49 15 -8 0 -30 6 -48 14 -46 19 -185 51 -294 67 -135 21 -530 18 -670
-4 -60 -10 -130 -24 -155 -32 -25 -7 -61 -17 -80 -20 -19 -4 -39 -11 -45 -15
-5 -4 -26 -11 -45 -15 -19 -4 -41 -11 -50 -15 -14 -7 -42 -19 -92 -39 -30 -12
-248 -119 -273 -134 -62 -38 -184 -120 -210 -142 -16 -14 -48 -40 -70 -57 -69
-57 -262 -255 -307 -315 -24 -32 -53 -69 -65 -83 -13 -14 -23 -30 -23 -36 0
-6 -7 -18 -16 -25 -9 -7 -20 -22 -25 -34 -5 -11 -18 -33 -29 -50 -11 -16 -23
-37 -27 -45 -3 -8 -16 -31 -28 -50 -12 -19 -29 -54 -38 -77 -14 -37 -35 -85
-68 -158 -20 -45 -49 -140 -49 -162 0 -12 -4 -23 -10 -23 -5 0 -10 -13 -10
-28 0 -15 -4 -32 -9 -37 -25 -28 -61 -332 -61 -517 0 -156 23 -387 44 -453 8
-22 17 -61 20 -87 4 -26 11 -50 17 -53 5 -4 9 -17 9 -30 0 -13 4 -26 9 -29 4
-3 11 -24 15 -46 3 -23 10 -49 15 -58 5 -9 13 -28 18 -42 49 -125 196 -387
265 -473 10 -12 21 -27 25 -32 143 -192 412 -429 630 -553 103 -59 215 -112
238 -112 8 0 15 -4 15 -10 0 -5 7 -10 15 -10 8 0 23 -4 33 -10 65 -36 311
-100 472 -121 139 -19 489 -16 624 5 137 21 347 75 381 97 6 3 23 9 39 13 54
13 236 100 346 165 75 45 240 165 307 224 20 18 78 75 130 127 l93 95 0 -253
c0 -139 4 -260 9 -270 5 -9 15 -30 22 -47 12 -26 41 -58 86 -95 7 -6 19 -10
27 -10 8 0 18 -5 21 -10 8 -13 175 -13 175 0 0 6 9 10 20 10 27 0 120 93 120
119 0 11 5 23 11 27 8 4 11 259 11 893 0 487 0 949 0 1026 1 77 -4 388 -10
690 -6 303 -15 1553 -22 2780 -7 1478 -14 2253 -21 2298 -10 59 -16 74 -53
113 -23 24 -47 44 -54 44 -7 0 -12 5 -12 10 0 6 -9 10 -19 10 -11 0 -23 5 -26
10 -3 6 -39 10 -78 9 -54 -1 -82 -6 -112 -22z m-1424 -4341 c148 -30 301 -78
371 -116 10 -6 24 -10 32 -10 8 0 16 -3 18 -7 2 -5 28 -21 58 -37 55 -29 170
-104 180 -116 3 -3 27 -21 54 -40 42 -28 208 -187 241 -231 116 -150 148 -202
210 -329 25 -52 50 -103 55 -112 6 -10 10 -27 10 -38 0 -11 5 -20 10 -20 6 0
10 -13 10 -30 0 -16 4 -30 8 -30 7 0 15 -30 47 -185 21 -104 20 -488 -1 -609
-9 -50 -20 -96 -25 -101 -4 -6 -11 -30 -15 -53 -4 -23 -11 -45 -15 -48 -5 -3
-9 -14 -9 -25 0 -10 -4 -27 -9 -37 -5 -9 -13 -28 -19 -42 -32 -81 -142 -280
-169 -308 -7 -7 -13 -16 -13 -20 0 -4 -10 -19 -23 -33 -12 -15 -42 -51 -67
-80 -57 -67 -134 -144 -188 -187 -22 -19 -50 -41 -61 -50 -10 -10 -29 -24 -41
-32 -12 -8 -33 -23 -45 -33 -13 -9 -27 -17 -31 -17 -4 0 -21 -10 -38 -23 -35
-26 -208 -111 -246 -122 -14 -3 -34 -10 -45 -15 -48 -21 -209 -61 -305 -76
-128 -19 -327 -22 -435 -5 -101 16 -297 61 -310 71 -5 5 -27 11 -47 15 -21 4
-38 11 -38 16 0 5 -7 9 -15 9 -8 0 -23 4 -33 9 -9 5 -51 26 -92 46 -100 49
-199 109 -247 150 -6 6 -26 21 -44 35 -46 36 -187 175 -238 238 -77 92 -140
194 -212 342 -22 47 -45 92 -49 100 -4 9 -11 31 -15 50 -4 19 -11 40 -15 45
-4 6 -11 30 -15 55 -4 25 -11 50 -15 55 -4 6 -16 57 -26 115 -27 155 -25 398
5 550 12 63 26 124 30 135 5 11 16 47 26 80 16 58 26 82 66 170 10 22 23 51
28 65 6 14 17 34 23 45 7 10 31 49 53 85 22 36 45 71 52 78 7 8 18 23 24 34 6
11 18 29 27 41 31 39 217 222 250 247 19 14 39 30 45 35 28 24 166 112 204
130 24 11 43 23 43 28 0 4 6 7 14 7 8 0 34 10 58 21 23 12 54 26 68 32 14 5
32 13 40 17 8 4 40 13 70 20 30 7 60 16 65 20 6 4 37 13 70 20 207 45 441 47
646 6z"/>
<path d="M13530 6860 c0 -5 -9 -10 -20 -10 -11 0 -20 -4 -20 -10 0 -5 -5 -10
-11 -10 -12 0 -79 -66 -79 -78 0 -4 -12 -20 -26 -37 -15 -16 -43 -53 -64 -80
-20 -28 -44 -56 -53 -64 -10 -7 -17 -18 -17 -23 0 -11 -55 -87 -110 -151 -40
-47 -117 -148 -140 -183 -27 -41 -84 -115 -122 -159 -21 -23 -38 -46 -38 -50
0 -4 -20 -31 -45 -59 -25 -29 -45 -58 -45 -63 0 -10 -96 -137 -137 -183 -13
-14 -23 -30 -23 -36 0 -6 -12 -21 -26 -35 -14 -13 -35 -39 -47 -59 -12 -19
-32 -46 -45 -60 -13 -14 -34 -41 -47 -60 -13 -19 -37 -51 -54 -70 -17 -19 -31
-38 -31 -41 0 -3 -12 -19 -26 -35 -14 -16 -33 -40 -42 -54 -9 -14 -33 -46 -54
-71 -21 -25 -38 -49 -38 -53 0 -4 -6 -13 -12 -20 -34 -35 -68 -77 -68 -83 0
-5 -20 -30 -45 -58 -24 -27 -45 -55 -45 -61 0 -6 -9 -19 -20 -29 -11 -10 -20
-22 -20 -27 0 -5 -9 -18 -19 -30 l-20 -20 -6 38 c-10 56 -44 192 -61 242 -8
23 -14 56 -14 72 0 26 -40 168 -60 215 -5 11 -16 49 -25 85 -9 36 -24 83 -34
105 -37 82 -51 116 -51 127 0 6 -15 43 -34 82 -19 39 -46 96 -60 126 -34 72
-72 140 -92 165 -9 11 -21 30 -27 43 -5 12 -14 22 -19 22 -4 0 -8 6 -8 13 0 6
-14 28 -31 47 -17 19 -43 51 -58 70 -27 37 -218 230 -263 267 -14 12 -35 26
-46 32 -11 6 -27 17 -34 23 -15 14 -44 31 -103 62 -22 12 -42 24 -45 27 -3 4
-16 10 -30 13 -14 4 -44 16 -68 27 -100 45 -157 54 -367 54 -126 0 -224 -5
-265 -13 -154 -31 -328 -76 -363 -93 -22 -10 -43 -19 -49 -19 -18 0 -80 -72
-89 -104 -12 -40 -12 -152 0 -193 11 -38 81 -110 116 -119 35 -9 118 -1 315
30 147 24 194 27 295 22 118 -5 230 -29 292 -62 16 -7 34 -14 41 -14 6 0 12
-3 12 -8 0 -4 13 -13 29 -20 16 -7 44 -26 63 -42 18 -16 36 -30 41 -30 11 0
187 -181 187 -192 0 -6 17 -31 38 -57 43 -51 97 -140 145 -236 5 -10 23 -44
38 -74 16 -31 29 -62 29 -69 0 -8 7 -29 15 -48 8 -19 22 -49 30 -68 8 -19 15
-41 15 -49 0 -9 5 -19 10 -22 6 -3 10 -18 10 -32 0 -15 9 -54 19 -87 50 -158
71 -233 71 -256 0 -14 16 -95 36 -180 19 -85 39 -185 44 -222 5 -36 18 -93 29
-125 l20 -58 -25 -26 c-13 -14 -24 -29 -24 -34 0 -4 -15 -26 -33 -49 -18 -23
-40 -52 -49 -66 -9 -14 -28 -38 -41 -53 -14 -15 -47 -57 -74 -93 -26 -36 -66
-89 -89 -117 -23 -29 -48 -65 -57 -82 -8 -16 -27 -41 -41 -54 -14 -14 -26 -28
-26 -33 0 -5 -21 -35 -47 -68 -68 -84 -123 -157 -123 -164 0 -3 -18 -24 -40
-48 -22 -24 -40 -48 -40 -54 0 -6 -7 -17 -16 -25 -9 -7 -53 -63 -99 -123 -45
-61 -94 -124 -109 -141 -14 -16 -26 -33 -26 -37 0 -4 -18 -28 -40 -53 -22 -25
-40 -49 -40 -53 0 -4 -18 -27 -40 -52 -22 -25 -40 -48 -40 -53 0 -6 -34 -48
-67 -83 -7 -7 -13 -17 -13 -22 0 -6 -17 -32 -38 -59 -115 -146 -124 -281 -26
-406 12 -15 26 -27 30 -27 5 0 20 -9 34 -20 37 -29 136 -28 188 2 37 22 142
129 142 146 0 4 13 21 28 37 16 17 37 44 47 60 24 37 112 151 142 185 13 14
23 30 23 37 0 6 3 13 8 15 4 2 27 32 52 68 24 36 53 74 63 85 11 11 29 36 42
55 13 19 31 44 42 55 10 11 36 45 57 75 21 30 45 59 52 63 8 4 14 13 14 20 0
7 18 32 40 57 22 25 40 49 40 53 0 4 16 25 35 46 19 20 48 58 65 82 16 25 39
54 50 64 11 10 20 23 20 29 0 6 18 31 40 56 22 24 40 47 40 51 0 4 18 27 40
51 22 23 40 46 40 49 0 3 13 22 28 42 l29 36 16 -38 c10 -21 17 -42 17 -47 0
-5 12 -31 26 -59 14 -27 40 -77 57 -110 16 -33 41 -74 53 -91 13 -17 24 -34
24 -38 0 -12 87 -138 127 -185 21 -24 45 -54 53 -66 8 -12 26 -33 40 -48 93
-96 135 -137 181 -177 28 -25 62 -55 76 -67 13 -13 37 -30 53 -38 16 -8 35
-23 42 -33 7 -10 29 -27 48 -38 19 -10 37 -21 40 -24 6 -7 183 -93 223 -109
71 -28 150 -51 247 -73 98 -21 128 -22 465 -23 381 0 486 9 680 56 144 36 275
118 291 182 3 15 10 27 15 27 5 0 9 9 9 19 0 11 5 23 10 26 6 3 10 37 10 75 0
38 -4 72 -10 75 -5 3 -10 15 -10 26 0 10 -4 19 -9 19 -5 0 -13 9 -16 20 -9 28
-56 70 -77 70 -10 0 -18 5 -18 11 0 20 -143 3 -280 -33 -198 -53 -390 -72
-654 -65 -225 6 -420 33 -459 65 -7 6 -29 13 -49 17 -21 4 -38 11 -38 16 0 5
-6 9 -12 9 -28 0 -140 68 -253 153 -47 36 -204 197 -249 257 -48 65 -146 209
-146 216 0 3 -18 41 -40 85 -22 44 -40 85 -40 91 0 5 -16 43 -35 83 -19 40
-42 103 -51 139 -19 77 -13 98 49 165 20 22 37 43 37 47 0 4 15 25 33 48 18
23 41 55 52 71 10 17 25 36 32 43 7 8 26 30 41 50 15 21 39 51 54 67 16 17 28
33 28 37 0 3 20 31 45 61 25 31 45 60 45 64 0 5 14 22 30 38 17 16 30 35 30
42 0 7 5 13 10 13 6 0 10 6 10 13 0 6 18 32 40 57 22 25 40 50 40 56 0 6 10
19 21 30 12 10 35 39 52 64 17 25 40 54 50 65 11 11 30 36 42 55 13 19 37 51
54 70 17 19 31 38 31 42 0 3 18 26 40 50 22 23 40 48 40 53 0 6 18 30 40 55
22 25 40 49 40 53 0 4 9 18 21 30 11 12 30 35 42 51 12 15 41 53 65 82 23 30
42 57 42 61 0 5 18 28 40 53 22 24 43 52 46 62 3 10 10 18 15 18 5 0 9 5 9 11
0 6 11 25 26 43 50 62 111 141 120 157 5 9 23 33 39 53 69 85 84 105 177 230
53 71 99 143 102 159 8 39 8 136 0 176 -7 35 -103 141 -128 141 -8 0 -18 5
-21 10 -3 6 -35 10 -71 10 -36 0 -64 -4 -64 -10z"/>
</g>
</svg>
